<svg class="icon" width="200" height="198.26" viewBox="0 0 1033 1024" xmlns="http://www.w3.org/2000/svg"><path d="M1002.6 500.663l-17.113 17.113c-4.889 4.889-12.223 4.889-17.124 0l-36.67-34.225v339.89c0 110.034-90.476 200.51-200.51 200.51H278.814C166.336 1026.397 75.86 935.92 75.86 825.888V483.55l-34.237 34.225c-4.89 4.889-12.224 4.889-17.113 0L7.398 500.663c-4.89-4.89-4.89-12.223 0-17.112L489.102 1.833c2.445-2.444 9.779-2.444 14.668 0 4.89-2.444 12.223-2.444 17.125 0L1002.6 483.551c4.89 4.889 4.89 12.223 0 17.112zM403.515 950.588c0 9.778 2.445 17.125 2.445 24.458h220.08c2.444-7.333 2.444-17.124 2.444-24.458V674.282c0-56.24-44.016-100.255-100.255-100.255H503.77c-56.239 0-100.255 44.016-100.255 100.255v276.306zm476.828-515.942L503.77 58.085l-376.56 376.56v391.242c0 83.142 68.462 151.604 151.604 151.604h78.24c-2.444-7.334-2.444-17.112-2.444-24.446V674.269c0-83.142 68.462-151.604 151.605-151.604h24.446c83.143 0 151.605 68.462 151.605 151.604v276.306c0 9.779 0 17.125-2.445 24.459h53.794c83.143 0 151.605-68.462 151.605-151.605V434.646h-4.877zm0 0"/></svg>