<svg class="icon" width="200" height="153.75" viewBox="0 0 1332 1024" xmlns="http://www.w3.org/2000/svg"><path d="M1315.414 444.123L1122.395 637.04c-12.825 12.8-18.662 31.231-15.641 49.304l45.567 272.378c6.015 36.018-21.862 65.252-53.529 65.252-8.345 0-16.972-2.048-25.317-6.527L834.889 888.835a53.35 53.35 0 0 0-50.61-.076l-238.663 128.508a52.99 52.99 0 0 1-25.344 6.298c-31.666 0-59.697-29.619-53.681-65.637l45.72-272.3c.896-56.421-51.327-20.045-51.327-20.045-2.15-.742-21.503-1.05-38.91 12.032l-140.285 90.366c-7.603 5.683-42.956 25.6-51.199 25.6-21.247 0-26.06-26.675-25.6-51.2V563.186c.257-13.517-12.799-26.88-23.704-34.662L17.04 411.074c-27.442-19.634-20.454-62.692 11.853-72.83l193.326-60.824c12.825-4.019 22.912-14.335 26.956-27.263l61.157-195.042c5.888-18.713 22.528-29.695 39.27-29.695 12.364 0 24.754 4.02 32.946 15.795l115.683 163.17c7.578 10.854 19.917 11.187 33.1 11.187h.59l108.822 4.557c-8.09 15.718-22.886 32.767-40.089 35.327l-148.45 16-93.617-143.46-34.866 147.479c3.2-10.138-12.442 58.648-78.693 79.46L102.593 383.99l123.338 78.104c32.511 23.244 56.626 60.44 55.858 101.092v127.997l94.18-78.949c43.084-32.332 116.759-22.911 85.015-23.449L307.388 435.19c16.41 16.41-64.664-46.258 25.6-76.798l179.195-25.6 76.798-25.599c28.595-4.25 76.081-100.63 51.199-51.198L760.855 31.052A53.605 53.605 0 0 1 809.596 0c19.38 0 38.758 10.368 48.716 31.052l119.319 247.827a54.45 54.45 0 0 0 40.907 30.49l266.797 39.73c44.568 6.655 62.36 62.795 30.08 95.024zm-308.088-55.038c-43.16-6.426-80.51-34.585-99.863-74.827l-97.867-203.9L691.38 307.193c10.393-21.606-51.2 76.798-51.2 76.798l-246.137 37.836 170.543 149.885 25.753 113.277c-18.841 82.942-52.556 262.188-52.556 262.188L746.06 818.028c-18.483 9.958 8.576-9.37 61.899-9.575-58.802.743 39.474-3.84 63.128 8.909l204.283 104.215-51.199-281.593c3.251 19.481-15.155-2.227 43.698-61.106l157.257-157.205-217.8-32.588z"/></svg>