<svg class="icon" width="200" height="200" viewBox="0 0 1024 1024" xmlns="http://www.w3.org/2000/svg"><path d="M959.147 319.147l-37.547-30.72c-10.24-8.533-22.187-11.947-35.84-10.24s-23.893 6.827-32.427 17.067l-363.52 442.027c-3.413 5.12-6.827 11.947-5.12 17.067l6.827 68.267c0 6.827 3.413 11.947 8.533 17.067 5.12 3.413 11.947 6.827 17.067 5.12l68.267-6.827c6.827 0 11.947-3.413 17.067-8.533l363.52-442.027c8.533-10.24 11.947-22.187 10.24-35.84 0-13.653-6.827-23.893-17.067-32.427z"/><path d="M855.04 254.293v-179.2c0-18.773-6.827-37.547-22.187-51.2-13.653-13.653-32.427-22.187-51.2-22.187h-655.36c-40.96 0-73.387 32.427-73.387 73.387v873.813c0 40.96 32.427 73.387 73.387 73.387h655.36c18.773 0 37.547-6.827 51.2-22.187 13.653-13.653 22.187-32.427 22.187-51.2v-389.12L605.867 863.573c-3.413 5.12-10.24 8.533-17.067 8.533l-78.507 6.827c-27.307 1.707-51.2-17.067-52.907-44.373l-6.827-78.507c0-6.827 1.707-13.653 5.12-17.067l399.36-484.693zm-692.907-81.92H696.32c20.48 0 35.84 17.067 35.84 35.84s-17.067 35.84-35.84 35.84H162.133c-13.653 0-25.6-6.827-34.133-17.067-6.827-11.947-6.827-25.6 0-37.547 8.533-11.947 20.48-18.773 34.133-17.067zM380.587 803.84H162.134c-18.773-1.707-34.133-17.067-34.133-35.84s15.36-35.84 34.133-35.84h218.453c18.773 1.707 34.133 17.067 34.133 35.84 1.707 18.773-13.653 34.133-34.133 35.84zM126.293 580.267c0-20.48 17.067-35.84 35.84-35.84H307.2c18.773 1.707 34.133 17.067 34.133 35.84s-15.36 35.84-34.133 35.84H162.133c-18.773 0-35.84-15.36-35.84-35.84zm35.84-150.187c-13.653 0-25.6-6.827-34.133-17.067-6.827-11.947-6.827-25.6 0-37.547s20.48-18.773 34.133-17.067H599.04c13.653 0 25.6 6.827 34.133 17.067 6.827 11.947 6.827 25.6 0 37.547s-20.48 18.773-34.133 17.067H162.133z"/></svg>