<svg class="icon" width="200" height="200" viewBox="0 0 1024 1024" xmlns="http://www.w3.org/2000/svg"><path d="M816.49 843.116H207.508c-30.883 0-55.888-24.11-55.888-53.822V730.11c0-14.392 5.38-28.117 14.471-37.807l70.134-93.646V423.685c0-79.867 27.06-153.968 76.234-208.52 23.095-25.689 50.09-45.733 80.25-60.364 8.45-4.099 15.319-10.919 18.482-19.764 14.795-41.406 54.255-71.063 100.726-71.063.03 0 .054.004.084.008a.528.528 0 0 1 .08-.008c46.472 0 85.933 29.657 100.73 71.063 3.16 8.845 10.03 15.665 18.48 19.764 30.16 14.63 57.156 34.675 80.25 60.364 49.173 54.553 76.231 128.653 76.231 208.52v174.972l70.134 93.646c9.095 9.69 14.471 23.415 14.471 37.807v59.186c0 29.711-25.003 53.82-55.889 53.82zm-.61-113.007l-70.188-93.589c-9.093-9.524-14.472-23.358-14.472-37.864V423.685c0-65.584-21.787-125.964-61.432-170.096-19.568-21.731-42.691-38.706-68.747-50.466a191.223 191.223 0 0 0-9.31-3.896c-15.831-6.14-28.79-19.481-31.67-36.217a51.104 51.104 0 0 0-2.024-7.867c-5.342-15.583-18.805-27.962-34.881-31.507-.481-.106-.938-.06-1.417-.15v.097c-3.15-.65-6.41-.988-9.737-1.037-3.33.05-6.593.388-9.742 1.037v-.098c-.48.09-.934.045-1.415.15-16.078 3.547-29.542 15.926-34.883 31.508a50.86 50.86 0 0 0-2.022 7.867c-2.883 16.737-15.84 30.078-31.67 36.217a190.468 190.468 0 0 0-9.308 3.896c-26.06 11.76-49.18 28.735-68.751 50.466-39.641 44.132-61.43 104.513-61.43 170.096v174.972c0 14.506-5.38 28.34-14.472 37.864l-70.19 93.589-.556 58.597 304.438.294 304.437-.294-.558-58.598zM461.808 887.333c11.711 10.314 26.69 15.968 42.125 17.452 2.68.26 5.372.17 8.069.172 2.692-.002 5.383.09 8.064-.172 15.436-1.485 30.414-7.138 42.127-17.452 7.961-7.01 13.959-15.444 18.102-24.777l58.29.056c-5.945 24.721-19.302 47.23-38.88 64.522-21.466 19.047-48.93 29.909-77.965 32.016v.006c-3.25.233-6.426.871-9.714.871-.008 0-.015-.004-.023-.004s-.02.004-.028.004c-3.288 0-6.463-.637-9.714-.87v-.007c-29.033-2.108-56.498-12.97-77.965-32.016-19.577-17.292-32.932-39.8-38.88-64.522l58.29-.056c4.145 9.332 10.14 17.767 18.102 24.777z"/></svg>