<svg class="icon" width="200" height="200" viewBox="0 0 1024 1024" xmlns="http://www.w3.org/2000/svg"><path d="M721.054 11.028a88.222 88.222 0 0 1 88.064 81.84l.236 6.302v311.375a31.508 31.508 0 0 1-62.78 3.939l-.236-3.939V99.17a25.206 25.206 0 0 0-21.543-24.851l-3.741-.276H96.177A25.206 25.206 0 0 0 71.168 95.43l-.276 3.741v792.616c0 12.564 9.334 23 21.544 24.812l3.741.276H522.24a31.508 31.508 0 0 1 3.938 62.779l-3.938.236H96.177a88.222 88.222 0 0 1-88.064-81.841l-.236-6.302V99.17c0-46.552 36.234-84.676 81.999-87.867l6.301-.275h624.877z"/><path d="M187.038 258.914h413.617q29.499 0 29.499 29.5 0 29.499-29.5 29.499H187.039q-29.5 0-29.5-29.5 0-29.499 29.5-29.499zm0 177.034h413.617q29.499 0 29.499 29.5 0 29.498-29.5 29.498H187.039q-29.5 0-29.5-29.499t29.5-29.499zm0 177.034h236.386q29.5 0 29.5 29.5 0 29.498-29.5 29.498H187.038q-29.5 0-29.5-29.499t29.5-29.499zm576.039-116.106a248.99 248.99 0 0 0-249.108 248.872 248.99 248.99 0 0 0 249.108 248.871 248.99 248.99 0 0 0 249.108-248.91 248.99 248.99 0 0 0-249.108-248.833zm0 55.139a193.851 193.851 0 0 1 193.97 193.733 193.851 193.851 0 0 1-193.97 193.733 193.851 193.851 0 0 1-193.97-193.773 193.851 193.851 0 0 1 193.97-193.693z"/><path d="M729.561 638.78h-.04q22.174 0 22.174 22.173V764.14q0 22.174-22.174 22.174h.04q-22.174 0-22.174-22.174V660.953q0-22.174 22.174-22.174z"/><path d="M862.444 771.545c0 12.209-9.885 22.134-22.094 22.134H736.886a22.134 22.134 0 1 1 0-44.269H840.35c12.209 0 22.094 9.925 22.094 22.135z"/></svg>