<svg class="icon" width="200" height="200" viewBox="0 0 1024 1024" xmlns="http://www.w3.org/2000/svg"><path d="M845.312 1023.488H154.624c-68.096 0-122.88-55.808-122.88-124.928V128.512c0-68.608 55.296-124.928 122.88-124.928H880.64c68.096 0 122.88 56.32 122.88 124.928V821.76c0 18.944-14.848 33.28-32.768 33.28-18.432 0-32.768-15.36-32.768-33.28V128.512c0-31.744-25.088-57.344-56.832-57.344H154.624c-31.232 0-56.832 25.6-56.832 57.344v770.56c0 31.744 25.088 57.344 56.832 57.344H844.8c18.432 0 32.768 15.36 32.768 33.28 1.024 19.456-13.824 33.792-32.256 33.792zm0 0"/><path d="M238.592 896V566.272c0-15.36 15.36-27.648 33.28-27.648 18.944 0 33.28 12.8 33.28 27.648V896c0 15.36-15.36 27.648-33.28 27.648s-33.28-12.288-33.28-27.648zm516.096-320v320c0 15.36-15.36 27.648-33.28 27.648-18.944 0-33.28-12.8-33.28-27.648V576c0-15.36 15.36-37.376 33.28-37.376s33.28 21.504 33.28 37.376zM544.256 896V658.432c0-11.776 15.36-20.48 33.28-20.48 18.944 0 33.28 9.216 33.28 20.48V896c0 11.776-15.36 27.648-33.28 27.648s-33.28-16.384-33.28-27.648zM396.8 900.096V696.832c0-9.728 15.36-17.408 33.28-17.408 18.944 0 33.28 8.192 33.28 17.408v203.264c0 9.728-15.36 23.552-33.28 23.552-18.432 0-33.28-13.824-33.28-23.552zm95.744-355.84c-3.584 0-7.68 0-11.264-4.096-3.584-3.584-3.584-11.264-3.584-15.36l19.456-105.984c0-3.584 3.584-7.68 3.584-7.68L729.088 181.76c15.36-14.848 34.304-22.528 53.248-22.528s37.888 7.68 52.736 23.04c14.848 15.36 22.528 34.304 22.528 53.248s-7.68 37.888-23.04 52.736L606.208 517.632c-3.584 3.584-3.584 3.584-7.68 3.584l-105.984 23.04zm38.4-113.152l-15.872 75.776 72.192-14.848 194.048-195.584-59.904-60.928-190.464 195.584zm251.392-237.056c-11.264 0-22.528 3.584-30.208 11.264l-7.68 7.68 59.904 60.928 7.68-7.68c7.68-7.68 11.264-18.944 11.776-30.208 0-11.264-3.584-22.528-11.264-30.208s-18.944-11.264-30.208-11.776z"/></svg>