<?xml version="1.0" standalone="no"?><!DOCTYPE svg PUBLIC "-//W3C//DTD SVG 1.1//EN" "http://www.w3.org/Graphics/SVG/1.1/DTD/svg11.dtd"><svg class="icon" width="200px" height="200.00px" viewBox="0 0 1024 1024" version="1.1" xmlns="http://www.w3.org/2000/svg"><path fill="#ffffff" d="M566.32 976.55V619.26h-87.38v357.17l-28.36-3.86c-92-12.51-175-65.57-231.08-146.85L200 837a42.76 42.76 0 0 1-58.34-15.59l-21.53-37.26a42.69 42.69 0 0 1 15.6-58.34h0.08l29.09-16.67a416.54 416.54 0 0 1-11.12-50.47h-36.1A42.78 42.78 0 0 1 75 615.89v-43a42.78 42.78 0 0 1 42.72-42.73h36.18a411.44 411.44 0 0 1 11.1-50.58l-29.21-16.85a42.67 42.67 0 0 1-15.61-58.38l21.5-37.22a42.77 42.77 0 0 1 58.32-15.6L220 363c6.29-9.25 12.63-17.73 19.15-25.62l7.5-9.07H798.8l7.51 9.13c6.24 7.6 12.35 15.78 18.45 24.69l18.41-10.63a42.76 42.76 0 0 1 58.33 15.59l21.5 37.29a42.69 42.69 0 0 1-15.59 58.33l-27.29 15.73A407.24 407.24 0 0 1 891.53 530h33.93a42.72 42.72 0 0 1 42.73 42.61v43a42.78 42.78 0 0 1-42.73 42.73h-33.85A414.78 414.78 0 0 1 880.08 710l27.35 15.82A42.69 42.69 0 0 1 923 784.16l-21.5 37.23A42.7 42.7 0 0 1 843.14 837l-17.88-10.31c-56.06 80.75-138.9 133.51-230.56 146z m-94.65-407.29h101.92A42.78 42.78 0 0 1 616.32 612v305.66c72.68-18.21 137-67.11 179.48-137.42l12.67-21 53.39 30.79 14.22-24.62-56.19-32.52 6.66-19.44A364.77 364.77 0 0 0 844.72 631l2.21-22.56h71.26V580h-71.37l-2.21-22.57a356.61 356.61 0 0 0-18-82.4l-6.8-19.55 56.29-32.43-14.22-24.61L808 429.55l-12.7-20.85c-6.91-11.33-13.65-21.36-20.45-30.37H270.49a358.85 358.85 0 0 0-20.91 31.16l-12.64 21-55.65-32-14.22 24.62 58.11 33.51-6.7 19.49a359.82 359.82 0 0 0-17.72 81.52l-2.23 22.54H125v28.49h73.46l2.23 22.54a368.1 368.1 0 0 0 17.75 81.62l6.6 19.48-57.93 33.21 14.21 24.59 55.13-31.86 12.65 21.1c42.45 70.81 106.93 120 179.88 138.26V612a42.78 42.78 0 0 1 42.69-42.74zM175 394.84z m565.32-99.33h-412.2v-25c0-113.69 92.49-206.17 206.17-206.17a205.91 205.91 0 0 1 206.06 206.2z m-360.21-50h308.3a156 156 0 0 0-154.12-131.17c-77.6 0-142.17 56.9-154.17 131.17z" /></svg>