<svg class="icon" width="200" height="200" viewBox="0 0 1024 1024" xmlns="http://www.w3.org/2000/svg"><path d="M1009.3 529.4c-7.3 58.1-145.2 105.3-319.4 105.3-174.1 0-312-47.2-319.3-105.3-7.3 10.9-7.3 21.9-7.3 32.8v105.1c0 80 148.9 145.2 330.3 145.2s330.3-65.3 330.3-145.2V562.2c-7.4-10.9-10.9-21.8-14.6-32.8m-998 40C4 580 .2 592.7.5 605.6v105.3C.5 790.7 145.7 856 327.1 856V681.8c-152.4.1-283-47.2-315.8-112.4m355.6-76.2C366.9 555 508.5 602 686.4 602c177.7 0 319.3-47.1 319.3-108.8 0-61.7-141.5-108.8-319.3-108.8-174.3 0-319.5 47-319.5 108.8m319.4 352c-152.5 0-283-47.3-319.4-108.8-7.3 10.7-11.1 23.3-10.8 36.3v101.6c0 79.8 148.8 145.2 330.2 145.2 181.5 0 330.2-65.5 330.2-145.2V769c0-10.8-3.6-21.8-10.8-36.3-32.8 65.2-163.4 112.5-319.4 112.5m-675-489.9C4.4 366.2.7 378.7.5 391.6v105.3c0 79.8 145.2 145 326.6 145V467.8c-152.4 0-283-47.2-315.8-112.5M330.7 221C508.5 221 650 173.8 650 112.2 650 50.4 508.5 3.3 330.7 3.3 152.8 3.3 7.8 54.1 7.8 112.2c0 61.6 145 108.8 322.9 108.8m293.9 127c21.8-18.1 32.8-40 32.8-61.7V184.7c0-10.9-3.7-21.8-7.3-32.7-7.2 58.1-145.2 105.2-319.3 105.2-174.3-3.6-315.8-47-323.2-108.8C4.1 159.3.4 170.2.4 184.7V290c0 79.8 148.7 145 330.3 145h18c29.2-47 141.6-79.7 275.9-87"/></svg>